<svg width="320" height="82" viewBox="0 0 320 82" fill="none" xmlns="http://www.w3.org/2000/svg">
<g clip-path="url(#clip0_427_7305)">
<path d="M96.1179 0.963436C96.1179 8.82368 88.5597 15.1961 79.2366 15.1961H56.6726V50.1804C56.6726 58.0407 49.1144 64.4131 39.7915 64.4131V15.1961V15.0466C39.7915 7.18636 47.3496 0.813965 56.6726 0.813965L96.1179 0.963436Z" fill="white" style="fill:white;fill-opacity:1;"/>
<path d="M58.091 35.8872H61.6367C70.9596 35.8872 78.5179 29.5148 78.5179 21.6545H58.0894V35.8872H58.091Z" fill="white" style="fill:white;fill-opacity:1;"/>
<path d="M47.9484 0.962891C47.9484 0.962891 39.7916 1.79938 36.1744 15.1955H23.8278C19.1143 15.1955 14.6008 13.5911 11.3105 10.7457L0 0.962891H47.9484Z" fill="white" style="fill:white;fill-opacity:1;"/>
<path d="M106.771 27.4592C106.771 29.8291 105.859 31.813 104.039 33.3792C102.256 34.9487 99.9781 35.7491 97.2046 35.7491C94.4312 35.7491 92.157 34.9487 90.333 33.3792C88.5504 31.8098 87.6384 29.8259 87.6384 27.4592V17.0586H90.5619V27.7502C90.5619 29.2848 91.2074 30.598 92.5361 31.718C93.8646 32.8065 95.422 33.3508 97.2046 33.3508C98.9873 33.3508 100.507 32.8065 101.836 31.718C103.164 30.598 103.847 29.2848 103.847 27.7502V17.0586H106.771V27.4592Z" fill="white" style="fill:white;fill-opacity:1;"/>
<path d="M117.895 35.6829C112.618 35.6829 109.998 33.7939 109.998 30.0191V10.6545H112.922V17.0239H117.895V19.2958H112.922V29.6014C112.922 32.3226 114.592 33.6673 117.895 33.6673V35.6829Z" fill="white" style="fill:white;fill-opacity:1;"/>
<path d="M139.568 27.4592C139.568 29.8291 138.656 31.813 136.836 33.3792C135.053 34.9487 132.775 35.7491 130.002 35.7491C127.228 35.7491 124.954 34.9487 123.13 33.3792C121.347 31.8098 120.435 29.8259 120.435 27.4592V17.0586H123.359V27.7502C123.359 29.2848 124.004 30.598 125.333 31.718C126.661 32.8065 128.219 33.3508 130.002 33.3508C131.784 33.3508 133.304 32.8065 134.633 31.718C135.961 30.598 136.644 29.2848 136.644 27.7502V17.0586H139.568V27.4592Z" fill="white" style="fill:white;fill-opacity:1;"/>
<path d="M145.606 35.3H142.57V17.0556H145.264V19.6471C145.872 18.6536 146.784 17.9195 147.959 17.3752C149.059 16.8943 150.162 16.6727 151.299 16.7044V19.1376C149.97 19.1693 148.871 19.4888 148.034 20.0647C147.197 20.6405 146.63 21.1531 146.326 21.5676C145.831 22.2733 145.606 23.2004 145.606 24.3838V35.2968V35.3Z" fill="white" style="fill:white;fill-opacity:1;"/>
<path d="M175.405 29.3129C174.61 31.2652 173.239 32.8347 171.307 33.9864C169.371 35.1381 167.247 35.7141 164.894 35.7457C161.932 35.7774 159.312 34.8818 157.035 33.0245C154.757 31.1356 153.578 28.927 153.541 26.3356C153.466 23.6144 154.603 21.2476 156.956 19.2953C159.347 17.3115 162.12 16.3812 165.343 16.5426C168.229 16.7039 170.733 17.6943 172.861 19.5516C174.911 21.3774 175.935 23.4245 175.935 25.6963V27.0095H156.498C156.727 28.8352 157.635 30.3698 159.268 31.5532C160.901 32.7366 162.8 33.3473 164.998 33.3125C168.414 33.2808 170.846 31.936 172.324 29.3129H175.405ZM173.09 24.7692C172.674 23.0734 171.724 21.6969 170.242 20.64C168.762 19.5833 166.976 19.039 164.889 19.0075C162.803 18.9757 160.979 19.52 159.421 20.5768C157.864 21.6337 156.915 23.0417 156.498 24.7692H173.09Z" fill="white" style="fill:white;fill-opacity:1;"/>
<path d="M80.0831 80.6681H77.1597V58.3609H70.5544V56.0574H86.7259V58.3609H80.0831V80.6681Z" fill="white" style="fill:white;fill-opacity:1;"/>
<path d="M110.607 74.6843C109.811 76.6366 108.441 78.2061 106.508 79.3578C104.572 80.5095 102.448 81.0853 100.094 81.117C97.1334 81.1487 94.5138 80.2532 92.2359 78.3958C89.9578 76.5069 88.7794 74.2983 88.7418 71.7069C88.6667 68.9857 89.8039 66.6189 92.157 64.6666C94.5476 62.6828 97.321 61.7526 100.545 61.9139C103.431 62.0752 105.934 63.0656 108.062 64.9229C110.111 66.7487 111.136 68.7958 111.136 71.0677V72.3809H91.6992C91.9281 74.2065 92.8363 75.7412 94.4689 76.9246C96.1013 78.108 98.0003 78.7187 100.2 78.6838C103.615 78.6521 106.047 77.3074 107.525 74.6843H110.607ZM108.291 70.1406C107.874 68.4446 106.925 67.0683 105.442 66.0114C103.964 64.9546 102.177 64.4103 100.091 64.3788C98.004 64.3471 96.1802 64.8914 94.6226 65.9481C93.0652 67.005 92.1158 68.413 91.6992 70.1406H108.291Z" fill="white" style="fill:white;fill-opacity:1;"/>
<path d="M135.849 75.8357C133.571 79.3891 130.04 81.1166 125.296 81.0851C122.144 81.0533 119.449 80.1231 117.171 78.3006C114.893 76.4781 113.756 74.2347 113.714 71.6116C113.677 68.9538 114.776 66.7135 117.055 64.8277C119.37 62.9387 122.102 61.9483 125.292 61.9135C127.57 61.8819 129.694 62.3945 131.669 63.4164C133.53 64.4101 134.896 65.625 135.692 67.128L136.108 67.9286H132.843C131.211 65.5933 128.745 64.3752 125.401 64.312C123.161 64.2803 121.187 64.9511 119.404 66.3591C117.542 67.7988 116.634 69.5265 116.634 71.5135C116.634 73.5006 117.509 75.1933 119.216 76.633C120.924 78.0412 122.973 78.7467 125.33 78.7151C128.707 78.6834 131.214 77.5317 132.884 75.2916H136.149L135.846 75.8357H135.849Z" fill="white" style="fill:white;fill-opacity:1;"/>
<path d="M156.727 80.6671H153.841V70.0419C153.841 68.5041 153.158 67.1942 151.829 66.0741C150.5 64.9539 148.906 64.4098 147.123 64.4415C145.299 64.473 143.745 64.9856 142.492 66.0108C141.238 67.0043 140.63 68.2826 140.63 69.852V80.6702H137.632V55.9932H140.555V65.0173C142.188 63.1915 144.312 62.2329 146.894 62.1379C149.589 62.0429 151.866 62.777 153.802 64.3781C155.739 65.9791 156.727 67.9631 156.727 70.2982V80.6671Z" fill="white" style="fill:white;fill-opacity:1;"/>
<path d="M178.594 80.667H175.671V70.0103C175.671 68.4756 174.988 67.1624 173.659 66.0424C172.331 64.9223 170.812 64.378 169.029 64.378C167.245 64.378 165.65 64.9223 164.322 66.0424C162.993 67.1624 162.349 68.4756 162.349 70.0103V80.667H159.424V70.2666C159.424 67.8965 160.336 65.9444 162.157 64.378C163.98 62.8087 166.254 62.0081 169.029 62.0081C171.801 62.0081 174.038 62.8087 175.862 64.378C177.686 65.9475 178.594 67.8998 178.594 70.2666V80.667Z" fill="white" style="fill:white;fill-opacity:1;"/>
<path d="M200.46 78.3632C198.22 80.2521 195.524 81.1792 192.414 81.0844C189.414 81.021 186.832 80.0592 184.745 78.205C182.659 76.3477 181.635 74.1391 181.635 71.5792C181.635 69.0195 182.772 66.6179 185.012 64.729C187.253 62.8083 189.947 61.8811 193.06 61.9761C196.057 62.0711 198.639 63.033 200.726 64.9219C202.813 66.7792 203.878 68.9878 203.878 71.5477C203.878 74.1074 202.738 76.4458 200.464 78.3632H200.46ZM192.451 78.6828C194.841 78.7777 196.853 78.1069 198.523 76.604C200.23 75.101 201.03 73.3702 200.993 71.3546C200.918 69.434 200.08 67.8013 198.523 66.4248C196.966 65.0485 195.108 64.3777 192.905 64.3777C190.589 64.346 188.652 65.0485 187.02 66.4248C185.388 67.8013 184.592 69.434 184.555 71.3862C184.518 73.3069 185.238 75.0029 186.795 76.4426C188.353 77.8822 190.211 78.6195 192.451 78.6828Z" fill="white" style="fill:white;fill-opacity:1;"/>
<path d="M237.925 80.6675H234.926V69.4665C234.926 68.0585 234.435 66.8433 233.485 65.8499C232.536 64.8564 231.245 64.3469 229.692 64.3469C228.138 64.3469 226.73 64.7962 225.552 65.6601C224.411 66.5238 223.844 67.6122 223.844 68.9254V80.6706H220.809V68.9254C220.809 67.6122 220.237 66.5238 219.063 65.6601C217.922 64.7962 216.557 64.3469 214.966 64.3469C213.373 64.3469 212.157 64.8595 211.208 65.8499C210.259 66.8433 209.804 68.0268 209.804 69.4665V80.6675H206.806V69.7545C206.806 67.4826 207.564 65.6253 209.122 64.2488C210.563 62.9356 212.462 62.2016 214.815 62.0402C217.968 61.8156 220.471 62.9673 222.332 65.4322C224.194 62.9673 226.697 61.8156 229.849 62.0402C232.202 62.1984 234.102 62.9356 235.58 64.2488C237.138 65.6253 237.933 67.4826 237.933 69.7545V80.6675H237.925Z" fill="white" style="fill:white;fill-opacity:1;"/>
<path d="M262.905 74.6843C262.11 76.6366 260.741 78.2061 258.807 79.3578C256.871 80.5095 254.747 81.0853 252.394 81.117C249.432 81.1487 246.812 80.2532 244.535 78.3958C242.257 76.5069 241.082 74.2983 241.041 71.7069C240.966 68.9857 242.103 66.6189 244.456 64.6666C246.847 62.6828 249.62 61.7526 252.843 61.9139C255.729 62.0752 258.233 63.0656 260.361 64.9229C262.411 66.7487 263.435 68.7958 263.435 71.0677V72.3809H243.998C244.227 74.2065 245.135 75.7412 246.768 76.9246C248.401 78.108 250.3 78.7187 252.498 78.6838C255.914 78.6521 258.346 77.3074 259.824 74.6843H262.905ZM260.59 70.1406C260.174 68.4446 259.224 67.0683 257.742 66.0114C256.262 64.9546 254.476 64.4103 252.389 64.3788C250.303 64.3471 248.479 64.8914 246.921 65.9481C245.364 67.005 244.415 68.413 243.998 70.1406H260.59Z" fill="white" style="fill:white;fill-opacity:1;"/>
<path d="M288.68 71.6429C288.755 74.266 287.656 76.541 285.34 78.4585C283.024 80.3475 280.33 81.2746 277.215 81.1796C274.216 81.1164 271.634 80.1545 269.547 78.3002C267.461 76.4429 266.437 74.2345 266.437 71.6746C266.437 69.1148 267.578 66.7133 269.814 64.8242C272.055 62.9036 274.749 61.9765 277.86 62.0715C281.051 62.1663 283.708 63.2549 285.832 65.3051V56.1196H288.68V71.6429ZM277.253 78.7813C279.643 78.8761 281.655 78.2054 283.325 76.6992C285.032 75.1962 285.832 73.4656 285.753 71.45C285.715 69.5293 284.879 67.8967 283.325 66.5202C281.767 65.1438 279.909 64.473 277.669 64.473C275.391 64.4414 273.417 65.1438 271.784 66.5202C270.152 67.8967 269.357 69.5293 269.315 71.4816C269.278 73.4022 270.035 75.0982 271.594 76.5379C273.151 77.9776 275.008 78.7148 277.248 78.7782H277.253V78.7813Z" fill="white" style="fill:white;fill-opacity:1;"/>
<path d="M294.602 60.2489H291.754V55.9932H294.602V60.2489ZM294.602 80.6671H291.754V62.4226H294.602V80.6671Z" fill="white" style="fill:white;fill-opacity:1;"/>
<path d="M319.999 80.6676H317.187V77.8199C314.834 80.0918 311.948 81.1802 308.534 81.0853C305.535 80.9903 302.99 80.0285 300.903 78.1711C298.816 76.3137 297.75 74.1053 297.75 71.5454C297.75 68.9856 298.892 66.5841 301.129 64.695C303.369 62.7744 306.063 61.879 309.212 61.9738C312.249 62.0688 314.831 63.0307 316.955 64.9198C319.079 66.7771 320.107 68.9856 319.991 71.5137V80.6676H319.999ZM300.675 71.3556C300.636 73.2762 301.357 74.9722 302.915 76.4118C304.472 77.8515 306.371 78.5888 308.571 78.6836C310.961 78.7786 312.974 78.0762 314.644 76.6048C316.351 75.1019 317.15 73.3395 317.108 71.3239C317.071 69.4033 316.235 67.7706 314.681 66.3942C313.122 65.0179 311.228 64.3471 309.025 64.3471C306.709 64.3471 304.773 65.0179 303.14 66.3942C301.507 67.7706 300.712 69.4033 300.671 71.3556H300.675Z" fill="white" style="fill:white;fill-opacity:1;"/>
</g>
<defs>
<clipPath id="clip0_427_7305">
<rect width="320" height="80.3721" fill="white" style="fill:white;fill-opacity:1;" transform="translate(0 0.813965)"/>
</clipPath>
</defs>
</svg>
