<svg width="665" height="580" viewBox="0 0 665 580" fill="none" xmlns="http://www.w3.org/2000/svg">
<path d="M654.57 1.09C654.57 58.41 608.1 104.88 550.78 104.88H412.05V360C412.05 417.32 365.58 463.79 308.26 463.79V104.88V103.79C308.26 46.47 354.73 0 412.05 0L654.57 1.09Z" fill="white" style="fill:white;fill-opacity:1;"/>
<path d="M420.77 255.77H442.57C499.89 255.77 546.36 209.3 546.36 151.98H420.76V255.77H420.77Z" fill="white" style="fill:white;fill-opacity:1;"/>
<path d="M358.41 1.09009C358.41 1.09009 308.26 7.19008 286.02 104.88H210.11C181.13 104.88 153.38 93.1801 133.15 72.4301L63.6101 1.09009H358.41Z" fill="white" style="fill:white;fill-opacity:1;"/>
<path d="M7.79001 455.99H0V397.32C0 385.08 8.40001 378.2 20.13 378.2H42.48V385.48H20.13C16.08 385.48 13.25 386.29 11.63 387.91C9.1 390.64 7.79001 393.27 7.79001 396V412.79H33.79V420.17H7.79001V455.98V455.99Z" fill="white" style="fill:white;fill-opacity:1;"/>
<path d="M96.5 431.21C96.5 438.7 94.07 444.97 89.22 449.92C84.47 454.88 78.4 457.41 71.01 457.41C63.62 457.41 57.56 454.88 52.7 449.92C47.95 444.96 45.52 438.69 45.52 431.21V398.34H53.31V432.13C53.31 436.98 55.03 441.13 58.57 444.67C62.11 448.11 66.26 449.83 71.01 449.83C75.76 449.83 79.81 448.11 83.35 444.67C86.89 441.13 88.71 436.98 88.71 432.13V398.34H96.5V431.21Z" fill="white" style="fill:white;fill-opacity:1;"/>
<path d="M126.14 457.2C112.08 457.2 105.1 451.23 105.1 439.3V378.1H112.89V398.23H126.14V405.41H112.89V437.98C112.89 446.58 117.34 450.83 126.14 450.83V457.2Z" fill="white" style="fill:white;fill-opacity:1;"/>
<path d="M183.89 431.21C183.89 438.7 181.46 444.97 176.61 449.92C171.86 454.88 165.79 457.41 158.4 457.41C151.01 457.41 144.95 454.88 140.09 449.92C135.34 444.96 132.91 438.69 132.91 431.21V398.34H140.7V432.13C140.7 436.98 142.42 441.13 145.96 444.67C149.5 448.11 153.65 449.83 158.4 449.83C163.15 449.83 167.2 448.11 170.74 444.67C174.28 441.13 176.1 436.98 176.1 432.13V398.34H183.89V431.21Z" fill="white" style="fill:white;fill-opacity:1;"/>
<path d="M199.98 455.99H191.89V398.33H199.07V406.52C200.69 403.38 203.12 401.06 206.25 399.34C209.18 397.82 212.12 397.12 215.15 397.22V404.91C211.61 405.01 208.68 406.02 206.45 407.84C204.22 409.66 202.71 411.28 201.9 412.59C200.58 414.82 199.98 417.75 199.98 421.49V455.98V455.99Z" fill="white" style="fill:white;fill-opacity:1;"/>
<path d="M279.38 437.07C277.26 443.24 273.61 448.2 268.46 451.84C263.3 455.48 257.64 457.3 251.37 457.4C243.48 457.5 236.5 454.67 230.43 448.8C224.36 442.83 221.22 435.85 221.12 427.66C220.92 419.06 223.95 411.58 230.22 405.41C236.59 399.14 243.98 396.2 252.57 396.71C260.26 397.22 266.93 400.35 272.6 406.22C278.06 411.99 280.79 418.46 280.79 425.64V429.79H229C229.61 435.56 232.03 440.41 236.38 444.15C240.73 447.89 245.79 449.82 251.65 449.71C260.75 449.61 267.23 445.36 271.17 437.07H279.38ZM273.21 422.71C272.1 417.35 269.57 413 265.62 409.66C261.68 406.32 256.92 404.6 251.36 404.5C245.8 404.4 240.94 406.12 236.79 409.46C232.64 412.8 230.11 417.25 229 422.71H273.21Z" fill="white" style="fill:white;fill-opacity:1;"/>
<path d="M25.39 577.37H17.6V506.87H0V499.59H43.09V506.87H25.39V577.37Z" fill="white" style="fill:white;fill-opacity:1;"/>
<path d="M106.72 558.46C104.6 564.63 100.95 569.59 95.8 573.23C90.64 576.87 84.98 578.69 78.71 578.79C70.82 578.89 63.84 576.06 57.77 570.19C51.7 564.22 48.56 557.24 48.46 549.05C48.26 540.45 51.29 532.97 57.56 526.8C63.93 520.53 71.32 517.59 79.91 518.1C87.6 518.61 94.27 521.74 99.94 527.61C105.4 533.38 108.13 539.85 108.13 547.03V551.18H56.34C56.95 556.95 59.37 561.8 63.72 565.54C68.07 569.28 73.13 571.21 78.99 571.1C88.09 571 94.57 566.75 98.51 558.46H106.72ZM100.55 544.1C99.44 538.74 96.91 534.39 92.96 531.05C89.02 527.71 84.26 525.99 78.7 525.89C73.14 525.79 68.28 527.51 64.13 530.85C59.98 534.19 57.45 538.64 56.34 544.1H100.55Z" fill="white" style="fill:white;fill-opacity:1;"/>
<path d="M173.98 562.1C167.91 573.33 158.5 578.79 145.86 578.69C137.46 578.59 130.28 575.65 124.21 569.89C118.14 564.13 115.11 557.04 115 548.75C114.9 540.35 117.83 533.27 123.9 527.31C130.07 521.34 137.35 518.21 145.85 518.1C151.92 518 157.58 519.62 162.84 522.85C167.8 525.99 171.44 529.83 173.56 534.58L174.67 537.11H165.97C161.62 529.73 155.05 525.88 146.14 525.68C140.17 525.58 134.91 527.7 130.16 532.15C125.2 536.7 122.78 542.16 122.78 548.44C122.78 554.72 125.11 560.07 129.66 564.62C134.21 569.07 139.67 571.3 145.95 571.2C154.95 571.1 161.63 567.46 166.08 560.38H174.78L173.97 562.1H173.98Z" fill="white" style="fill:white;fill-opacity:1;"/>
<path d="M229.61 577.37H221.92V543.79C221.92 538.93 220.1 534.79 216.56 531.25C213.02 527.71 208.77 525.99 204.02 526.09C199.16 526.19 195.02 527.81 191.68 531.05C188.34 534.19 186.72 538.23 186.72 543.19V577.38H178.73V499.39H186.52V527.91C190.87 522.14 196.53 519.11 203.41 518.81C210.59 518.51 216.66 520.83 221.82 525.89C226.98 530.95 229.61 537.22 229.61 544.6V577.37Z" fill="white" style="fill:white;fill-opacity:1;"/>
<path d="M287.88 577.37H280.09V543.69C280.09 538.84 278.27 534.69 274.73 531.15C271.19 527.61 267.14 525.89 262.39 525.89C257.64 525.89 253.39 527.61 249.85 531.15C246.31 534.69 244.59 538.84 244.59 543.69V577.37H236.8V544.5C236.8 537.01 239.23 530.84 244.08 525.89C248.94 520.93 255 518.4 262.39 518.4C269.78 518.4 275.74 520.93 280.6 525.89C285.46 530.85 287.88 537.02 287.88 544.5V577.37Z" fill="white" style="fill:white;fill-opacity:1;"/>
<path d="M346.14 570.09C340.17 576.06 332.99 578.99 324.7 578.69C316.71 578.49 309.83 575.45 304.27 569.59C298.71 563.72 295.98 556.74 295.98 548.65C295.98 540.56 299.01 532.97 304.98 527C310.95 520.93 318.13 518 326.42 518.3C334.41 518.6 341.29 521.64 346.85 527.61C352.41 533.48 355.25 540.46 355.25 548.55C355.25 556.64 352.21 564.03 346.15 570.09H346.14ZM324.8 571.1C331.17 571.4 336.53 569.28 340.98 564.53C345.53 559.78 347.66 554.31 347.56 547.94C347.36 541.87 345.13 536.71 340.98 532.36C336.83 528.01 331.88 525.89 326.01 525.89C319.84 525.79 314.68 528.01 310.33 532.36C305.98 536.71 303.86 541.87 303.76 548.04C303.66 554.11 305.58 559.47 309.73 564.02C313.88 568.57 318.83 570.9 324.8 571.1Z" fill="white" style="fill:white;fill-opacity:1;"/>
<path d="M445.97 577.37H437.98V541.97C437.98 537.52 436.67 533.68 434.14 530.54C431.61 527.4 428.17 525.79 424.03 525.79C419.89 525.79 416.14 527.21 413 529.94C409.96 532.67 408.45 536.11 408.45 540.26V577.38H400.36V540.26C400.36 536.11 398.84 532.67 395.71 529.94C392.67 527.21 389.03 525.79 384.79 525.79C380.55 525.79 377.31 527.41 374.78 530.54C372.25 533.68 371.04 537.42 371.04 541.97V577.37H363.05V542.88C363.05 535.7 365.07 529.83 369.22 525.48C373.06 521.33 378.12 519.01 384.39 518.5C392.79 517.79 399.46 521.43 404.42 529.22C409.38 521.43 416.05 517.79 424.45 518.5C430.72 519 435.78 521.33 439.72 525.48C443.87 529.83 445.99 535.7 445.99 542.88V577.37H445.97Z" fill="white" style="fill:white;fill-opacity:1;"/>
<path d="M512.53 558.46C510.41 564.63 506.76 569.59 501.61 573.23C496.45 576.87 490.79 578.69 484.52 578.79C476.63 578.89 469.65 576.06 463.58 570.19C457.51 564.22 454.38 557.24 454.27 549.05C454.07 540.45 457.1 532.97 463.37 526.8C469.74 520.53 477.13 517.59 485.72 518.1C493.41 518.61 500.08 521.74 505.75 527.61C511.21 533.38 513.94 539.85 513.94 547.03V551.18H462.15C462.76 556.95 465.18 561.8 469.53 565.54C473.88 569.28 478.94 571.21 484.8 571.1C493.9 571 500.38 566.75 504.32 558.46H512.53ZM506.36 544.1C505.25 538.74 502.72 534.39 498.77 531.05C494.83 527.71 490.07 525.99 484.51 525.89C478.95 525.79 474.09 527.51 469.94 530.85C465.79 534.19 463.26 538.64 462.15 544.1H506.36Z" fill="white" style="fill:white;fill-opacity:1;"/>
<path d="M581.21 548.85C581.41 557.14 578.48 564.33 572.31 570.39C566.14 576.36 558.96 579.29 550.66 578.99C542.67 578.79 535.79 575.75 530.23 569.89C524.67 564.02 521.94 557.04 521.94 548.95C521.94 540.86 524.98 533.27 530.94 527.3C536.91 521.23 544.09 518.3 552.38 518.6C560.88 518.9 567.96 522.34 573.62 528.82V499.79H581.21V548.85ZM550.76 571.41C557.13 571.71 562.49 569.59 566.94 564.83C571.49 560.08 573.62 554.61 573.41 548.24C573.31 542.17 571.08 537.01 566.94 532.66C562.79 528.31 557.84 526.19 551.87 526.19C545.8 526.09 540.54 528.31 536.19 532.66C531.84 537.01 529.72 542.17 529.61 548.34C529.51 554.41 531.53 559.77 535.68 564.32C539.83 568.87 544.78 571.2 550.75 571.4H550.76V571.41Z" fill="white" style="fill:white;fill-opacity:1;"/>
<path d="M596.99 512.84H589.4V499.39H596.99V512.84ZM596.99 577.37H589.4V519.71H596.99V577.37Z" fill="white" style="fill:white;fill-opacity:1;"/>
<path d="M664.66 577.37H657.17V568.37C650.9 575.55 643.21 578.99 634.11 578.69C626.12 578.39 619.34 575.35 613.78 569.48C608.22 563.61 605.38 556.63 605.38 548.54C605.38 540.45 608.42 532.86 614.38 526.89C620.35 520.82 627.53 517.99 635.92 518.29C644.01 518.59 650.89 521.63 656.55 527.6C662.21 533.47 664.95 540.45 664.64 548.44V577.37H664.66ZM613.17 547.94C613.07 554.01 614.99 559.37 619.14 563.92C623.29 568.47 628.35 570.8 634.21 571.1C640.58 571.4 645.94 569.18 650.39 564.53C654.94 559.78 657.07 554.21 656.96 547.84C656.86 541.77 654.63 536.61 650.49 532.26C646.34 527.91 641.29 525.79 635.42 525.79C629.25 525.79 624.09 527.91 619.74 532.26C615.39 536.61 613.27 541.77 613.16 547.94H613.17Z" fill="white" style="fill:white;fill-opacity:1;"/>
</svg>
